<svg xmlns="http://www.w3.org/2000/svg" width="24" height="24" fill="none" viewBox="0 0 24 24" id="cart-in"><path fill="#7997C2" fill-rule="evenodd" d="M19.7534 8H5L6.65197 15.4339C6.85532 16.3489 7.66695 17 8.60434 17H17.3957C18.3331 17 19.1447 16.3489 19.348 15.4339L20.7296 9.21693C20.8684 8.59242 20.3931 8 19.7534 8ZM11 12C10.4477 12 10 12.4477 10 13C10 13.5523 10.4477 14 11 14H15C15.5523 14 16 13.5523 16 13C16 12.4477 15.5523 12 15 12H11Z" clip-rule="evenodd"></path><circle cx="17" cy="20" r="2" fill="#B9CBE5"></circle><circle cx="9" cy="20" r="2" fill="#B9CBE5"></circle><path fill="#B9CBE5" d="M13 2C12.4477 2 12 2.44772 12 3V4.33333L11.2936 3.86239C10.7406 3.49376 10 3.89015 10 4.5547C10 4.8329 10.139 5.09269 10.3705 5.24701L12.4453 6.6302C12.7812 6.85413 13.2188 6.85413 13.5547 6.6302L15.6295 5.24701C15.861 5.09269 16 4.8329 16 4.5547C16 3.89015 15.2594 3.49376 14.7064 3.86239L14 4.33333V3C14 2.44772 13.5523 2 13 2Z"></path><path fill="#7997C2" d="M3 6H4.50612L5 8H7.04L6.27473 4.76986C6.15991 4.27254 5.69261 3.94826 5.19764 4H3C2.44772 4 2 4.44771 2 5C2 5.55228 2.44771 6 3 6Z"></path></svg>