<svg width="46" height="58" viewBox="0 0 46 58" fill="none" xmlns="http://www.w3.org/2000/svg">
<path d="M31.3369 26.0657L26.264 25.3261L23.9967 20.7288C23.5904 19.9094 22.4133 19.899 22.0036 20.7288L19.7362 25.3261L14.6633 26.0657C13.7536 26.1976 13.389 27.3191 14.0487 27.9615L17.7189 31.5379L16.8508 36.59C16.6946 37.5032 17.6564 38.1872 18.4619 37.7601L23.0001 35.3747L27.5383 37.7601C28.3439 38.1837 29.3057 37.5032 29.1494 36.59L28.2814 31.5379L31.9515 27.9615C32.6112 27.3191 32.2467 26.1976 31.3369 26.0657ZM26.4932 30.9545L27.3161 35.7601L23.0001 33.4927L18.6842 35.7601L19.5071 30.9545L16.014 27.5518L20.8404 26.8504L23.0001 22.4754L25.1598 26.8504L29.9862 27.5518L26.4932 30.9545Z" fill="white"/>
</svg>
