<svg xmlns="http://www.w3.org/2000/svg" xmlns:xlink="http://www.w3.org/1999/xlink" width="16" height="16" id="user"><defs><linearGradient id="c" x1="-834" x2="-826" y1="950.126" y2="950.126" gradientTransform="translate(146.997 243.258)" gradientUnits="userSpaceOnUse" xlink:href="#a"></linearGradient><linearGradient id="a"><stop offset="0" stop-color="#fcd635"></stop><stop offset="1" stop-color="#f7a928"></stop></linearGradient><linearGradient id="d" x1="-689" x2="-677" y1="165.511" y2="165.511" gradientUnits="userSpaceOnUse" xlink:href="#b"></linearGradient><linearGradient id="b"><stop offset="0" stop-color="#4b5d64"></stop><stop offset="1" stop-color="#3d4155"></stop></linearGradient></defs><g transform="translate(691 -1189.373)"><circle cx="-683.003" cy="1193.384" r="4" fill="url(#c)"></circle><path fill="url(#d)" d="M-686.498 162.021c-1.386 0-2.502 1.018-2.502 2.282V168.494l.006.006H-689a.5.5 0 0 0 .146.354.5.5 0 0 0 .354.146h10.994l.006-.006V169a.5.5 0 0 0 .354-.146.5.5 0 0 0 .146-.354V164.303c0-1.264-1.116-2.282-2.502-2.282h-6.996z" transform="translate(0 1036.362)"></path></g></svg>